<?xml version="1.0" encoding="UTF-8"?><svg id="Livello_1" xmlns="http://www.w3.org/2000/svg" viewBox="0 0 928.63 321.11"><defs><style>.cls-1{fill:#232120;}</style></defs><g><g><path class="cls-1" d="M336.17,117.32l-3.8,33.75h-9.67l7.61-58.23,22.74,37.63,22.82-37.63,7.61,58.23h-9.75l-3.8-33.67-16.87,28.52-16.88-28.6Z"/><path class="cls-1" d="M405.25,123.34c0-4.12,.71-7.94,2.14-11.45,1.43-3.51,3.45-6.55,6.06-9.11s5.67-4.55,9.15-5.98c3.49-1.43,7.29-2.14,11.41-2.14s7.94,.71,11.45,2.14c3.51,1.43,6.58,3.42,9.19,5.98s4.63,5.6,6.06,9.11c1.43,3.51,2.14,7.33,2.14,11.45s-.71,7.94-2.14,11.45c-1.43,3.51-3.43,6.58-6.02,9.19s-5.64,4.65-9.15,6.1c-3.51,1.45-7.35,2.18-11.53,2.18s-8-.73-11.49-2.18-6.52-3.49-9.11-6.1-4.6-5.68-6.02-9.19c-1.43-3.51-2.14-7.33-2.14-11.45Zm9.9,0c0,3.8,.81,7.2,2.42,10.18,1.61,2.98,3.84,5.32,6.69,7.01,2.85,1.69,6.1,2.54,9.74,2.54s6.96-.84,9.78-2.54c2.83-1.69,5.04-4.03,6.66-7.01,1.61-2.98,2.42-6.38,2.42-10.18s-.81-7.2-2.42-10.18c-1.61-2.98-3.83-5.32-6.66-7.01-2.83-1.69-6.09-2.54-9.78-2.54s-6.89,.84-9.74,2.54c-2.85,1.69-5.08,4.03-6.69,7.01-1.61,2.98-2.42,6.38-2.42,10.18Z"/><path class="cls-1" d="M506.57,134.59l16.32-38.98h10.85l-27.17,58.55-27.17-58.55h10.85l16.32,38.98Z"/><path class="cls-1" d="M565.11,125.4v17.43h24.56v8.24h-33.75v-55.46h33.75v8.24h-24.56v13.47h22.98v8.08h-22.98Z"/><path class="cls-1" d="M627.3,117.32l-3.8,33.75h-9.67l7.61-58.23,22.74,37.63,22.82-37.63,7.61,58.23h-9.75l-3.8-33.67-16.87,28.52-16.88-28.6Z"/><path class="cls-1" d="M708.73,125.4v17.43h24.56v8.24h-33.75v-55.46h33.75v8.24h-24.56v13.47h22.98v8.08h-22.98Z"/><path class="cls-1" d="M801.1,95.61h9.19v58.23l-40.48-39.45v36.68h-9.19v-58.23l40.48,39.53v-36.76Z"/><path class="cls-1" d="M832.87,104.25v-8.63h38.66v8.63h-14.66v46.82h-9.43v-46.82h-14.58Z"/></g><g><path class="cls-1" d="M322.71,227.83v-19.52h2.75v19.52h-2.75Z"/><path class="cls-1" d="M352.01,227.83l-10.89-14.84v14.84h-2.75v-19.52h2.75l10.89,14.84v-14.84h2.75v19.52h-2.75Z"/><path class="cls-1" d="M383.81,208.31l-7.64,19.52h-3.08l-7.64-19.52h2.94l6.24,15.94,6.24-15.94h2.94Z"/><path class="cls-1" d="M394.51,208.31h14.02v2.75h-11.27v5.64h10.45v2.75h-10.45v5.63h11.27v2.75h-14.02v-19.52Z"/><path class="cls-1" d="M418.86,222.33h2.75c0,1.01,.48,1.79,1.44,2.35,.96,.56,2.18,.84,3.64,.84s2.66-.29,3.63-.87c.97-.58,1.46-1.35,1.46-2.32,0-.48-.12-.89-.36-1.24-.24-.35-.63-.65-1.17-.89s-1.05-.44-1.54-.58c-.49-.14-1.16-.3-2.02-.48-1.1-.2-2.04-.43-2.83-.69-.79-.26-1.54-.6-2.27-1.02-.72-.42-1.27-.96-1.64-1.62-.37-.66-.55-1.43-.55-2.31,0-1.74,.69-3.11,2.08-4.12,1.38-1.01,3.12-1.51,5.21-1.51s3.89,.52,5.25,1.57c1.36,1.05,2.03,2.4,2.03,4.07h-2.75c0-.9-.43-1.6-1.29-2.12-.86-.51-1.94-.77-3.24-.77-1.41,0-2.52,.25-3.33,.76-.81,.5-1.21,1.21-1.21,2.13,0,.72,.42,1.32,1.26,1.8,.84,.49,1.93,.85,3.27,1.09,1.19,.22,2.22,.47,3.08,.74s1.67,.64,2.43,1.09c.76,.45,1.34,1.02,1.73,1.7,.39,.69,.59,1.49,.59,2.4,0,1.83-.75,3.28-2.24,4.34-1.49,1.06-3.36,1.59-5.59,1.59s-4.08-.55-5.58-1.64c-1.5-1.09-2.25-2.52-2.25-4.3Z"/><path class="cls-1" d="M443.9,208.31h17.04v2.75h-7.15v16.77h-2.75v-16.77h-7.15v-2.75Z"/><path class="cls-1" d="M471.8,227.83v-19.52h2.75v19.52h-2.75Z"/><path class="cls-1" d="M501.11,227.83l-10.89-14.84v14.84h-2.75v-19.52h2.75l10.89,14.84v-14.84h2.75v19.52h-2.75Z"/><path class="cls-1" d="M523.43,216.95h10.17v10.89h-2.75v-.96c-1.59,.94-3.32,1.4-5.17,1.4-2.82,0-5.23-.99-7.22-2.98-1.99-1.99-2.98-4.39-2.98-7.22s.99-5.23,2.98-7.22,4.39-2.98,7.22-2.98,5.08,.96,7.09,2.89l-1.92,1.95c-1.45-1.39-3.17-2.09-5.17-2.09s-3.81,.73-5.26,2.18c-1.46,1.46-2.18,3.21-2.18,5.27s.73,3.83,2.18,5.28,3.21,2.17,5.26,2.17,3.72-.7,5.17-2.09v-3.74h-7.42v-2.75Z"/><path class="cls-1" d="M562.44,208.31h17.04v2.75h-7.15v16.77h-2.75v-16.77h-7.15v-2.75Z"/><path class="cls-1" d="M603.97,227.83v-8.38h-10.89v8.38h-2.75v-19.52h2.75v8.38h10.89v-8.38h2.75v19.52h-2.75Z"/><path class="cls-1" d="M619.64,208.31h9.13c1.72,0,3.2,.61,4.43,1.84,1.23,1.23,1.84,2.7,1.84,4.43,0,1.48-.45,2.79-1.35,3.9-.9,1.12-2.04,1.84-3.44,2.17l4.34,7.18h-3.19l-4.23-7.01h-4.78v7.01h-2.75v-19.52Zm2.75,9.76h6.38c.97,0,1.8-.34,2.49-1.02,.69-.68,1.03-1.5,1.03-2.47s-.34-1.8-1.03-2.49c-.69-.69-1.52-1.03-2.49-1.03h-6.38v7.01Z"/><path class="cls-1" d="M648.27,225.29c-1.99-1.99-2.98-4.39-2.98-7.22s.99-5.23,2.98-7.22,4.39-2.98,7.22-2.98,5.23,.99,7.22,2.98c1.99,1.99,2.98,4.39,2.98,7.22s-.99,5.23-2.98,7.22c-1.99,1.99-4.39,2.98-7.22,2.98s-5.23-.99-7.22-2.98Zm-.23-7.22c0,2.07,.73,3.83,2.18,5.28s3.21,2.17,5.26,2.17,3.81-.73,5.27-2.18c1.46-1.46,2.18-3.21,2.18-5.26s-.73-3.81-2.18-5.27c-1.46-1.46-3.21-2.18-5.27-2.18s-3.81,.73-5.26,2.18c-1.46,1.46-2.18,3.21-2.18,5.27Z"/><path class="cls-1" d="M690.7,220.08v-11.77h2.75v11.77c0,2.25-.8,4.18-2.4,5.79-1.6,1.6-3.53,2.41-5.79,2.41s-4.18-.8-5.79-2.41c-1.6-1.6-2.4-3.53-2.4-5.79v-11.77h2.75v11.77c0,1.5,.53,2.79,1.59,3.85,1.06,1.06,2.35,1.59,3.85,1.59s2.78-.53,3.85-1.59c1.06-1.06,1.59-2.35,1.59-3.85Z"/><path class="cls-1" d="M712.75,216.95h10.17v10.89h-2.75v-.96c-1.59,.94-3.32,1.4-5.17,1.4-2.82,0-5.23-.99-7.22-2.98-1.99-1.99-2.98-4.39-2.98-7.22s.99-5.23,2.98-7.22,4.39-2.98,7.22-2.98,5.08,.96,7.09,2.89l-1.92,1.95c-1.45-1.39-3.17-2.09-5.17-2.09s-3.81,.73-5.26,2.18c-1.46,1.46-2.18,3.21-2.18,5.27s.73,3.83,2.18,5.28,3.21,2.17,5.26,2.17,3.72-.7,5.17-2.09v-3.74h-7.42v-2.75Z"/><path class="cls-1" d="M748.59,227.83v-8.38h-10.89v8.38h-2.75v-19.52h2.75v8.38h10.89v-8.38h2.75v19.52h-2.75Z"/><path class="cls-1" d="M781.06,208.31h17.04v2.75h-7.15v16.77h-2.75v-16.77h-7.15v-2.75Z"/><path class="cls-1" d="M808.96,227.83v-19.52h2.75v19.52h-2.75Z"/><path class="cls-1" d="M833.12,227.83l-5.75-13.08v13.08h-2.75v-19.52h2.75l7.23,16.19,7.23-16.19h2.75v19.52h-2.75v-13.08l-5.75,13.08h-2.97Z"/><path class="cls-1" d="M857.51,208.31h14.02v2.75h-11.27v5.64h10.45v2.75h-10.45v5.63h11.27v2.75h-14.02v-19.52Z"/></g><rect class="cls-1" x="322.71" y="179.03" width="548.82" height="1"/></g><path class="cls-1" d="M160.44,56.54c-57.36,0-104.02,46.66-104.02,104.02s46.66,104.02,104.02,104.02,104.02-46.66,104.02-104.02-46.66-104.02-104.02-104.02Zm0,204.04c-38.81,0-72.53-22.22-89.11-54.61l31.81-52.59,55.29,32.05,2.01,1.16,2.01-1.16,55.3-32.05,31.88,52.44c-16.55,32.47-50.31,54.76-89.18,54.76Zm-72.99-114.68c1.13-.25,2.25,.47,2.5,1.61s-.47,2.25-1.61,2.5c-1.13,.25-2.25-.47-2.5-1.61-.25-1.13,.47-2.25,1.61-2.5Zm19.32-18.64l2.29-5.6,2.29,5.6,6.04,.44-4.62,3.91,1.44,5.88-5.14-3.19-5.14,3.19,1.44-5.88-4.62-3.91,6.04-.44Zm-4.38-15.02c1.13-.25,2.25,.47,2.5,1.61,.25,1.13-.47,2.25-1.61,2.5-1.13,.25-2.25-.47-2.5-1.61-.25-1.13,.47-2.25,1.61-2.5Zm24.37-14.4l1.44,5.88-5.14-3.19-5.14,3.19,1.44-5.88-4.62-3.91,6.04-.44,2.29-5.6,2.29,5.6,6.04,.44-4.62,3.91Zm6.67,49.67c.25,1.13-.47,2.25-1.61,2.5-1.13,.25-2.25-.47-2.5-1.61-.25-1.13,.47-2.25,1.61-2.5,1.13-.25,2.25,.47,2.5,1.61Zm7.31-30.72c1.13-.25,2.25,.47,2.5,1.61s-.47,2.25-1.61,2.5c-1.13,.25-2.25-.47-2.5-1.61s.47-2.25,1.61-2.5Zm11.49-13.66c-1.13,.25-2.25-.47-2.5-1.61s.47-2.25,1.61-2.5c1.13-.25,2.25,.47,2.5,1.61,.25,1.13-.47,2.25-1.61,2.5Zm2.12,9.78c1.13-.25,2.25,.47,2.5,1.61,.25,1.13-.47,2.25-1.61,2.5-1.13,.25-2.25-.47-2.5-1.61s.47-2.25,1.61-2.5Zm-2.57,23.3l2.29,5.6,6.04,.44-4.62,3.91,1.44,5.88-5.14-3.19-5.14,3.19,1.44-5.88-4.62-3.91,6.04-.44,2.29-5.6Zm8.52-51.98c1.13-.25,2.25,.47,2.5,1.61,.25,1.13-.47,2.25-1.61,2.5-1.13,.25-2.25-.47-2.5-1.61s.47-2.25,1.61-2.5Zm50.83,36.37c15.1,3.54,24.48,18.65,20.94,33.76-.75,3.21-2.03,6.15-3.72,8.78l-9.23-15.19-34.26,19.86c-6.63-6.64-9.78-16.46-7.48-26.27,3.54-15.1,18.65-24.48,33.76-20.94Zm-6.85-21.58c1.13-.25,2.25,.47,2.5,1.61,.25,1.13-.47,2.25-1.61,2.5-1.13,.25-2.25-.47-2.5-1.61s.47-2.25,1.61-2.5Zm-18.62,12.6l-5.14-3.19-5.14,3.19,1.44-5.88-4.62-3.91,6.04-.44,2.29-5.6,2.29,5.6,6.04,.44-4.62,3.91,1.44,5.88Zm58.22,77.03c2.97-8.83,4.58-18.28,4.58-28.11,0-48.61-39.41-88.02-88.02-88.02s-88.02,39.41-88.02,88.02c0,9.88,1.63,19.37,4.63,28.24l-7.79,12.87c-5.68-12.55-8.84-26.46-8.84-41.11,0-55.15,44.87-100.02,100.02-100.02s100.02,44.87,100.02,100.02c0,14.58-3.14,28.45-8.77,40.95l-7.81-12.85Z"/></svg>